<mxfile host="65bd71144e">
    <diagram id="6DDf1jvvWhQS4T-hMH15" name="第 1 页">
        <mxGraphModel dx="885" dy="847" grid="1" gridSize="10" guides="1" tooltips="1" connect="1" arrows="1" fold="1" page="1" pageScale="1" pageWidth="850" pageHeight="1100" math="0" shadow="0">
            <root>
                <mxCell id="0"/>
                <mxCell id="1" parent="0"/>
                <mxCell id="2" value="gg_cm_case_entity_info" style="shape=cylinder3;whiteSpace=wrap;html=1;boundedLbl=1;backgroundOutline=1;size=5;" vertex="1" parent="1">
                    <mxGeometry x="140" y="150" width="190" height="60" as="geometry"/>
                </mxCell>
                <mxCell id="4" value="delta_sql" style="shape=cylinder3;whiteSpace=wrap;html=1;boundedLbl=1;backgroundOutline=1;size=5;" vertex="1" parent="1">
                    <mxGeometry x="185" y="240" width="100" height="60" as="geometry"/>
                </mxCell>
                <mxCell id="5" value="group by case_tid, entity_id, adjacency_id ,&lt;br&gt;order by gg_rba" style="rounded=0;whiteSpace=wrap;html=1;" vertex="1" parent="1">
                    <mxGeometry x="175" y="330" width="120" height="60" as="geometry"/>
                </mxCell>
                <mxCell id="6" value="lookup&lt;br&gt;&amp;nbsp;&lt;span style=&quot;background-color: rgb(253 , 246 , 227) ; color: rgb(51 , 51 , 51) ; font-family: &amp;#34;menlo&amp;#34; , &amp;#34;monaco&amp;#34; , &amp;#34;courier new&amp;#34; , monospace&quot;&gt;CM_CASES&lt;/span&gt;" style="shape=cylinder3;rounded=0;whiteSpace=wrap;html=1;size=6;" vertex="1" parent="1">
                    <mxGeometry x="150" y="420" width="170" height="50" as="geometry"/>
                </mxCell>
                <mxCell id="7" value="filter&amp;nbsp;&lt;br&gt;discipline_id != null" style="rounded=0;whiteSpace=wrap;html=1;" vertex="1" parent="1">
                    <mxGeometry x="172.5" y="500" width="125" height="40" as="geometry"/>
                </mxCell>
                <mxCell id="8" value="expression" style="rounded=0;whiteSpace=wrap;html=1;" vertex="1" parent="1">
                    <mxGeometry x="173.75" y="570" width="122.5" height="30" as="geometry"/>
                </mxCell>
                <mxCell id="9" value="lookup&lt;br&gt;&amp;nbsp;&lt;span style=&quot;background-color: rgb(253 , 246 , 227) ; color: rgb(51 , 51 , 51) ; font-family: &amp;#34;menlo&amp;#34; , &amp;#34;monaco&amp;#34; , &amp;#34;courier new&amp;#34; , monospace&quot;&gt;DISCIPLINE&lt;/span&gt;" style="shape=cylinder3;rounded=0;whiteSpace=wrap;html=1;size=6;" vertex="1" parent="1">
                    <mxGeometry x="112.5" y="640" width="97.5" height="50" as="geometry"/>
                </mxCell>
                <mxCell id="10" value="lookup&lt;br&gt;&amp;nbsp;&lt;span style=&quot;background-color: rgb(253 , 246 , 227) ; color: rgb(51 , 51 , 51) ; font-family: &amp;#34;menlo&amp;#34; , &amp;#34;monaco&amp;#34; , &amp;#34;courier new&amp;#34; , monospace&quot;&gt;WUSER&lt;/span&gt;" style="shape=cylinder3;rounded=0;whiteSpace=wrap;html=1;size=6;" vertex="1" parent="1">
                    <mxGeometry x="260" y="640" width="97.5" height="50" as="geometry"/>
                </mxCell>
                <mxCell id="11" value="filter&amp;nbsp;&lt;br&gt;discipline_name != null" style="rounded=0;whiteSpace=wrap;html=1;" vertex="1" parent="1">
                    <mxGeometry x="172.5" y="720" width="125" height="40" as="geometry"/>
                </mxCell>
                <mxCell id="12" value="expression" style="rounded=0;whiteSpace=wrap;html=1;" vertex="1" parent="1">
                    <mxGeometry x="172.5" y="790" width="122.5" height="30" as="geometry"/>
                </mxCell>
                <mxCell id="13" value="target&lt;br&gt;&amp;nbsp;&lt;span style=&quot;background-color: rgb(253 , 246 , 227) ; color: rgb(51 , 51 , 51) ; font-family: &amp;#34;menlo&amp;#34; , &amp;#34;monaco&amp;#34; , &amp;#34;courier new&amp;#34; , monospace&quot;&gt;DISCIPLINE&lt;/span&gt;" style="shape=cylinder3;rounded=0;whiteSpace=wrap;html=1;size=6;" vertex="1" parent="1">
                    <mxGeometry x="186.25" y="850" width="97.5" height="50" as="geometry"/>
                </mxCell>
                <mxCell id="14" value="" style="endArrow=classic;html=1;" edge="1" parent="1" source="2" target="4">
                    <mxGeometry width="50" height="50" relative="1" as="geometry">
                        <mxPoint x="360" y="220" as="sourcePoint"/>
                        <mxPoint x="410" y="170" as="targetPoint"/>
                    </mxGeometry>
                </mxCell>
                <mxCell id="15" value="" style="endArrow=classic;html=1;" edge="1" parent="1" source="4" target="5">
                    <mxGeometry width="50" height="50" relative="1" as="geometry">
                        <mxPoint x="245" y="220" as="sourcePoint"/>
                        <mxPoint x="235" y="340" as="targetPoint"/>
                    </mxGeometry>
                </mxCell>
                <mxCell id="16" value="" style="endArrow=classic;html=1;" edge="1" parent="1" source="5" target="6">
                    <mxGeometry width="50" height="50" relative="1" as="geometry">
                        <mxPoint x="255" y="230" as="sourcePoint"/>
                        <mxPoint x="255" y="260" as="targetPoint"/>
                    </mxGeometry>
                </mxCell>
                <mxCell id="17" value="" style="endArrow=classic;html=1;" edge="1" parent="1" source="6" target="7">
                    <mxGeometry width="50" height="50" relative="1" as="geometry">
                        <mxPoint x="265" y="240" as="sourcePoint"/>
                        <mxPoint x="265" y="270" as="targetPoint"/>
                    </mxGeometry>
                </mxCell>
                <mxCell id="18" value="" style="endArrow=classic;html=1;" edge="1" parent="1" source="7" target="8">
                    <mxGeometry width="50" height="50" relative="1" as="geometry">
                        <mxPoint x="275" y="250" as="sourcePoint"/>
                        <mxPoint x="275" y="280" as="targetPoint"/>
                    </mxGeometry>
                </mxCell>
                <mxCell id="19" value="" style="endArrow=classic;html=1;" edge="1" parent="1" source="8" target="9">
                    <mxGeometry width="50" height="50" relative="1" as="geometry">
                        <mxPoint x="285" y="260" as="sourcePoint"/>
                        <mxPoint x="285" y="290" as="targetPoint"/>
                    </mxGeometry>
                </mxCell>
                <mxCell id="20" value="" style="endArrow=classic;html=1;" edge="1" parent="1" source="8" target="10">
                    <mxGeometry width="50" height="50" relative="1" as="geometry">
                        <mxPoint x="295" y="270" as="sourcePoint"/>
                        <mxPoint x="295" y="300" as="targetPoint"/>
                    </mxGeometry>
                </mxCell>
                <mxCell id="21" value="" style="endArrow=classic;html=1;" edge="1" parent="1" source="8" target="11">
                    <mxGeometry width="50" height="50" relative="1" as="geometry">
                        <mxPoint x="305" y="280" as="sourcePoint"/>
                        <mxPoint x="305" y="310" as="targetPoint"/>
                    </mxGeometry>
                </mxCell>
                <mxCell id="22" value="" style="endArrow=classic;html=1;" edge="1" parent="1" source="9" target="11">
                    <mxGeometry width="50" height="50" relative="1" as="geometry">
                        <mxPoint x="315" y="290" as="sourcePoint"/>
                        <mxPoint x="315" y="320" as="targetPoint"/>
                    </mxGeometry>
                </mxCell>
                <mxCell id="23" value="" style="endArrow=classic;html=1;" edge="1" parent="1" source="10" target="11">
                    <mxGeometry width="50" height="50" relative="1" as="geometry">
                        <mxPoint x="325" y="300" as="sourcePoint"/>
                        <mxPoint x="325" y="330" as="targetPoint"/>
                    </mxGeometry>
                </mxCell>
                <mxCell id="24" value="" style="endArrow=classic;html=1;" edge="1" parent="1" source="11" target="12">
                    <mxGeometry width="50" height="50" relative="1" as="geometry">
                        <mxPoint x="335" y="310" as="sourcePoint"/>
                        <mxPoint x="335" y="340" as="targetPoint"/>
                    </mxGeometry>
                </mxCell>
                <mxCell id="25" value="" style="endArrow=classic;html=1;" edge="1" parent="1" source="12" target="13">
                    <mxGeometry width="50" height="50" relative="1" as="geometry">
                        <mxPoint x="345" y="320" as="sourcePoint"/>
                        <mxPoint x="345" y="350" as="targetPoint"/>
                    </mxGeometry>
                </mxCell>
            </root>
        </mxGraphModel>
    </diagram>
</mxfile>